<svg width="60" height="60" viewBox="0 0 60 60" fill="none" xmlns="http://www.w3.org/2000/svg">
<circle cx="30" cy="30" r="30" fill="#F2994A" fill-opacity="0.1"/>
<circle cx="30" cy="30" r="29.5" stroke="#FEFEFE" stroke-opacity="0.03"/>
<g filter="url(#filter0_d)">
<path d="M27.72 17.2837L16.4267 36.137C16.1939 36.5402 16.0707 36.9974 16.0693 37.463C16.068 37.9286 16.1887 38.3865 16.4193 38.791C16.6498 39.1956 16.9823 39.5327 17.3836 39.7688C17.7849 40.0049 18.2411 40.1319 18.7067 40.137H41.2934C41.759 40.1319 42.2151 40.0049 42.6164 39.7688C43.0177 39.5327 43.3502 39.1956 43.5808 38.791C43.8114 38.3865 43.932 37.9286 43.9307 37.463C43.9294 36.9974 43.8062 36.5402 43.5734 36.137L32.28 17.2837C32.0423 16.8918 31.7077 16.5678 31.3083 16.343C30.9089 16.1181 30.4583 16 30 16C29.5417 16 29.0911 16.1181 28.6918 16.343C28.2924 16.5678 27.9577 16.8918 27.72 17.2837V17.2837Z" stroke="#F2994A" stroke-width="2.4" stroke-linecap="round" stroke-linejoin="round"/>
<path d="M30 24.137V29.4703" stroke="#F2994A" stroke-width="2.4" stroke-linecap="round" stroke-linejoin="round"/>
<path d="M30 34.8036H30.0133" stroke="#F2994A" stroke-width="2.4" stroke-linecap="round" stroke-linejoin="round"/>
</g>
<defs>
<filter id="filter0_d" x="-13" y="-9" width="86" height="86" filterUnits="userSpaceOnUse" color-interpolation-filters="sRGB">
<feFlood flood-opacity="0" result="BackgroundImageFix"/>
<feColorMatrix in="SourceAlpha" type="matrix" values="0 0 0 0 0 0 0 0 0 0 0 0 0 0 0 0 0 0 127 0" result="hardAlpha"/>
<feOffset dy="4"/>
<feGaussianBlur stdDeviation="6.5"/>
<feColorMatrix type="matrix" values="0 0 0 0 0.94902 0 0 0 0 0.6 0 0 0 0 0.290196 0 0 0 0.5 0"/>
<feBlend mode="normal" in2="BackgroundImageFix" result="effect1_dropShadow"/>
<feBlend mode="normal" in="SourceGraphic" in2="effect1_dropShadow" result="shape"/>
</filter>
</defs>
</svg>
